<svg width="30" height="30" viewBox="0 0 30 30" fill="none" xmlns="http://www.w3.org/2000/svg">
<path d="M30 4.25C30 3.25544 29.6049 2.30161 28.9016 1.59835C28.1984 0.895088 27.2446 0.5 26.25 0.5L3.75 0.5C2.75544 0.5 1.80161 0.895088 1.09835 1.59835C0.395088 2.30161 0 3.25544 0 4.25L0 19.25C0 20.2446 0.395088 21.1984 1.09835 21.9016C1.80161 22.6049 2.75544 23 3.75 23H21.7238C22.221 23.0001 22.6978 23.1977 23.0494 23.5494L28.3988 28.8988C28.5298 29.0301 28.6968 29.1196 28.8787 29.156C29.0606 29.1924 29.2492 29.1739 29.4206 29.1031C29.5921 29.0322 29.7386 28.9121 29.8418 28.7579C29.9449 28.6037 30 28.4224 30 28.2369V4.25ZM9.375 11.75C9.375 12.2473 9.17746 12.7242 8.82582 13.0758C8.47419 13.4275 7.99728 13.625 7.5 13.625C7.00272 13.625 6.52581 13.4275 6.17417 13.0758C5.82254 12.7242 5.625 12.2473 5.625 11.75C5.625 11.2527 5.82254 10.7758 6.17417 10.4242C6.52581 10.0725 7.00272 9.875 7.5 9.875C7.99728 9.875 8.47419 10.0725 8.82582 10.4242C9.17746 10.7758 9.375 11.2527 9.375 11.75ZM16.875 11.75C16.875 12.2473 16.6775 12.7242 16.3258 13.0758C15.9742 13.4275 15.4973 13.625 15 13.625C14.5027 13.625 14.0258 13.4275 13.6742 13.0758C13.3225 12.7242 13.125 12.2473 13.125 11.75C13.125 11.2527 13.3225 10.7758 13.6742 10.4242C14.0258 10.0725 14.5027 9.875 15 9.875C15.4973 9.875 15.9742 10.0725 16.3258 10.4242C16.6775 10.7758 16.875 11.2527 16.875 11.75ZM22.5 13.625C22.0027 13.625 21.5258 13.4275 21.1742 13.0758C20.8225 12.7242 20.625 12.2473 20.625 11.75C20.625 11.2527 20.8225 10.7758 21.1742 10.4242C21.5258 10.0725 22.0027 9.875 22.5 9.875C22.9973 9.875 23.4742 10.0725 23.8258 10.4242C24.1775 10.7758 24.375 11.2527 24.375 11.75C24.375 12.2473 24.1775 12.7242 23.8258 13.0758C23.4742 13.4275 22.9973 13.625 22.5 13.625Z" fill="white"/>
</svg>
