<svg width="25" height="25" viewBox="0 0 25 25" fill="none" xmlns="http://www.w3.org/2000/svg">
<path d="M21.875 2.17395C22.2894 2.17395 22.6868 2.33714 22.9799 2.62762C23.2729 2.91811 23.4375 3.31209 23.4375 3.72289V16.1145C23.4375 16.5253 23.2729 16.9193 22.9799 17.2097C22.6868 17.5002 22.2894 17.6634 21.875 17.6634H17.9688C17.4836 17.6634 17.0051 17.7754 16.5712 17.9905C16.1373 18.2055 15.7598 18.5178 15.4687 18.9026L12.5 22.8261L9.53125 18.9026C9.24017 18.5178 8.86272 18.2055 8.42879 17.9905C7.99487 17.7754 7.51639 17.6634 7.03125 17.6634H3.125C2.7106 17.6634 2.31317 17.5002 2.02015 17.2097C1.72712 16.9193 1.5625 16.5253 1.5625 16.1145V3.72289C1.5625 3.31209 1.72712 2.91811 2.02015 2.62762C2.31317 2.33714 2.7106 2.17395 3.125 2.17395H21.875ZM3.125 0.625C2.2962 0.625 1.50134 0.951384 0.915291 1.53235C0.32924 2.11332 0 2.90128 0 3.72289L0 16.1145C0 16.9361 0.32924 17.724 0.915291 18.305C1.50134 18.886 2.2962 19.2124 3.125 19.2124H7.03125C7.27382 19.2124 7.51306 19.2683 7.73002 19.3759C7.94698 19.4834 8.13571 19.6396 8.28125 19.8319L11.25 23.7554C11.3955 23.9478 11.5843 24.1039 11.8012 24.2115C12.0182 24.319 12.2574 24.375 12.5 24.375C12.7426 24.375 12.9818 24.319 13.1988 24.2115C13.4157 24.1039 13.6045 23.9478 13.75 23.7554L16.7188 19.8319C16.8643 19.6396 17.053 19.4834 17.27 19.3759C17.4869 19.2683 17.7262 19.2124 17.9688 19.2124H21.875C22.7038 19.2124 23.4987 18.886 24.0847 18.305C24.6708 17.724 25 16.9361 25 16.1145V3.72289C25 2.90128 24.6708 2.11332 24.0847 1.53235C23.4987 0.951384 22.7038 0.625 21.875 0.625L3.125 0.625Z" fill="#6EFFA8"/>
<path d="M7.8125 9.91868C7.8125 10.3295 7.64788 10.7235 7.35485 11.0139C7.06183 11.3044 6.6644 11.4676 6.25 11.4676C5.8356 11.4676 5.43817 11.3044 5.14515 11.0139C4.85212 10.7235 4.6875 10.3295 4.6875 9.91868C4.6875 9.50787 4.85212 9.11389 5.14515 8.82341C5.43817 8.53293 5.8356 8.36973 6.25 8.36973C6.6644 8.36973 7.06183 8.53293 7.35485 8.82341C7.64788 9.11389 7.8125 9.50787 7.8125 9.91868ZM14.0625 9.91868C14.0625 10.3295 13.8979 10.7235 13.6049 11.0139C13.3118 11.3044 12.9144 11.4676 12.5 11.4676C12.0856 11.4676 11.6882 11.3044 11.3951 11.0139C11.1021 10.7235 10.9375 10.3295 10.9375 9.91868C10.9375 9.50787 11.1021 9.11389 11.3951 8.82341C11.6882 8.53293 12.0856 8.36973 12.5 8.36973C12.9144 8.36973 13.3118 8.53293 13.6049 8.82341C13.8979 9.11389 14.0625 9.50787 14.0625 9.91868ZM20.3125 9.91868C20.3125 10.3295 20.1479 10.7235 19.8549 11.0139C19.5618 11.3044 19.1644 11.4676 18.75 11.4676C18.3356 11.4676 17.9382 11.3044 17.6451 11.0139C17.3521 10.7235 17.1875 10.3295 17.1875 9.91868C17.1875 9.50787 17.3521 9.11389 17.6451 8.82341C17.9382 8.53293 18.3356 8.36973 18.75 8.36973C19.1644 8.36973 19.5618 8.53293 19.8549 8.82341C20.1479 9.11389 20.3125 9.50787 20.3125 9.91868Z" fill="#6EFFA8"/>
</svg>
