<svg width="30" height="31" viewBox="0 0 30 31" fill="none" xmlns="http://www.w3.org/2000/svg">
<path d="M15.5194 0.331195C15.3655 0.228806 15.1848 0.174179 15 0.174179C14.8152 0.174179 14.6345 0.228806 14.4806 0.331195L0.418125 9.70619C0.250775 9.81778 0.123752 9.98024 0.0558172 10.1696C-0.0121177 10.3589 -0.0173616 10.565 0.04086 10.7576C0.0990815 10.9501 0.217681 11.1188 0.379141 11.2387C0.540601 11.3587 0.736359 11.4235 0.9375 11.4237H4.45312V24.5487H2.8125C2.56386 24.5487 2.3254 24.6475 2.14959 24.8233C1.97377 24.9991 1.875 25.2376 1.875 25.4862C1.875 25.7348 1.97377 25.9733 2.14959 26.1491C2.3254 26.3249 2.56386 26.4237 2.8125 26.4237H27.1875C27.4361 26.4237 27.6746 26.3249 27.8504 26.1491C28.0262 25.9733 28.125 25.7348 28.125 25.4862C28.125 25.2376 28.0262 24.9991 27.8504 24.8233C27.6746 24.6475 27.4361 24.5487 27.1875 24.5487H25.5469V11.4237H29.0625C29.2636 11.4235 29.4594 11.3587 29.6209 11.2387C29.7823 11.1188 29.9009 10.9501 29.9591 10.7576C30.0174 10.565 30.0121 10.3589 29.9442 10.1696C29.8762 9.98024 29.7492 9.81778 29.5819 9.70619L15.5194 0.331195ZM23.2031 11.4237V24.5487H20.8594V11.4237H23.2031ZM18.5156 11.4237V24.5487H16.1719V11.4237H18.5156ZM13.8281 11.4237V24.5487H11.4844V11.4237H13.8281ZM9.14062 11.4237V24.5487H6.79688V11.4237H9.14062ZM15 7.67369C14.5027 7.67369 14.0258 7.47615 13.6742 7.12452C13.3225 6.77289 13.125 6.29598 13.125 5.79869C13.125 5.30141 13.3225 4.8245 13.6742 4.47287C14.0258 4.12124 14.5027 3.92369 15 3.92369C15.4973 3.92369 15.9742 4.12124 16.3258 4.47287C16.6775 4.8245 16.875 5.30141 16.875 5.79869C16.875 6.29598 16.6775 6.77289 16.3258 7.12452C15.9742 7.47615 15.4973 7.67369 15 7.67369ZM0.9375 28.2987C0.68886 28.2987 0.450403 28.3975 0.274587 28.5733C0.0987721 28.7491 0 28.9876 0 29.2362C0 29.4848 0.0987721 29.7233 0.274587 29.8991C0.450403 30.0749 0.68886 30.1737 0.9375 30.1737H29.0625C29.3111 30.1737 29.5496 30.0749 29.7254 29.8991C29.9012 29.7233 30 29.4848 30 29.2362C30 28.9876 29.9012 28.7491 29.7254 28.5733C29.5496 28.3975 29.3111 28.2987 29.0625 28.2987H0.9375Z" fill="white"/>
</svg>
