<svg width="25" height="25" viewBox="0 0 25 25" fill="none" xmlns="http://www.w3.org/2000/svg">
<path d="M2.34375 1.5625C2.13655 1.5625 1.93784 1.64481 1.79132 1.79132C1.64481 1.93784 1.5625 2.13655 1.5625 2.34375V7.03125C1.5625 7.23845 1.48019 7.43716 1.33368 7.58368C1.18716 7.73019 0.98845 7.8125 0.78125 7.8125C0.57405 7.8125 0.375336 7.73019 0.228823 7.58368C0.0823101 7.43716 0 7.23845 0 7.03125V2.34375C0 1.72215 0.24693 1.12601 0.686468 0.686468C1.12601 0.24693 1.72215 0 2.34375 0L7.03125 0C7.23845 0 7.43716 0.0823101 7.58368 0.228823C7.73019 0.375336 7.8125 0.57405 7.8125 0.78125C7.8125 0.98845 7.73019 1.18716 7.58368 1.33368C7.43716 1.48019 7.23845 1.5625 7.03125 1.5625H2.34375ZM17.1875 0.78125C17.1875 0.57405 17.2698 0.375336 17.4163 0.228823C17.5628 0.0823101 17.7615 0 17.9688 0L22.6562 0C23.2779 0 23.874 0.24693 24.3135 0.686468C24.7531 1.12601 25 1.72215 25 2.34375V7.03125C25 7.23845 24.9177 7.43716 24.7712 7.58368C24.6247 7.73019 24.426 7.8125 24.2188 7.8125C24.0115 7.8125 23.8128 7.73019 23.6663 7.58368C23.5198 7.43716 23.4375 7.23845 23.4375 7.03125V2.34375C23.4375 2.13655 23.3552 1.93784 23.2087 1.79132C23.0622 1.64481 22.8635 1.5625 22.6562 1.5625H17.9688C17.7615 1.5625 17.5628 1.48019 17.4163 1.33368C17.2698 1.18716 17.1875 0.98845 17.1875 0.78125ZM0.78125 17.1875C0.98845 17.1875 1.18716 17.2698 1.33368 17.4163C1.48019 17.5628 1.5625 17.7615 1.5625 17.9688V22.6562C1.5625 22.8635 1.64481 23.0622 1.79132 23.2087C1.93784 23.3552 2.13655 23.4375 2.34375 23.4375H7.03125C7.23845 23.4375 7.43716 23.5198 7.58368 23.6663C7.73019 23.8128 7.8125 24.0115 7.8125 24.2188C7.8125 24.426 7.73019 24.6247 7.58368 24.7712C7.43716 24.9177 7.23845 25 7.03125 25H2.34375C1.72215 25 1.12601 24.7531 0.686468 24.3135C0.24693 23.874 0 23.2779 0 22.6562V17.9688C0 17.7615 0.0823101 17.5628 0.228823 17.4163C0.375336 17.2698 0.57405 17.1875 0.78125 17.1875ZM24.2188 17.1875C24.426 17.1875 24.6247 17.2698 24.7712 17.4163C24.9177 17.5628 25 17.7615 25 17.9688V22.6562C25 23.2779 24.7531 23.874 24.3135 24.3135C23.874 24.7531 23.2779 25 22.6562 25H17.9688C17.7615 25 17.5628 24.9177 17.4163 24.7712C17.2698 24.6247 17.1875 24.426 17.1875 24.2188C17.1875 24.0115 17.2698 23.8128 17.4163 23.6663C17.5628 23.5198 17.7615 23.4375 17.9688 23.4375H22.6562C22.8635 23.4375 23.0622 23.3552 23.2087 23.2087C23.3552 23.0622 23.4375 22.8635 23.4375 22.6562V17.9688C23.4375 17.7615 23.5198 17.5628 23.6663 17.4163C23.8128 17.2698 24.0115 17.1875 24.2188 17.1875Z" fill="#6EFFA8"/>
<path d="M4.6875 21.875C4.6875 21.875 3.125 21.875 3.125 20.3125C3.125 18.75 4.6875 14.0625 12.5 14.0625C20.3125 14.0625 21.875 18.75 21.875 20.3125C21.875 21.875 20.3125 21.875 20.3125 21.875H4.6875ZM17.1875 7.8125C17.1875 9.0557 16.6936 10.248 15.8146 11.1271C14.9355 12.0061 13.7432 12.5 12.5 12.5C11.2568 12.5 10.0645 12.0061 9.18544 11.1271C8.30636 10.248 7.8125 9.0557 7.8125 7.8125C7.8125 6.5693 8.30636 5.37701 9.18544 4.49794C10.0645 3.61886 11.2568 3.125 12.5 3.125C13.7432 3.125 14.9355 3.61886 15.8146 4.49794C16.6936 5.37701 17.1875 6.5693 17.1875 7.8125Z" fill="#6EFFA8"/>
</svg>
