<svg width="25" height="19" viewBox="0 0 25 19" fill="none" xmlns="http://www.w3.org/2000/svg">
<path d="M2.34375 0C1.72215 0 1.12601 0.250223 0.686468 0.695621C0.24693 1.14102 0 1.74511 0 2.375V5.54167H9.375C9.5822 5.54167 9.78091 5.62507 9.92743 5.77354C10.0739 5.92201 10.1562 6.12337 10.1562 6.33333C10.1562 6.73392 10.2813 7.353 10.6344 7.85017C10.9578 8.30617 11.5047 8.70833 12.5 8.70833C13.4953 8.70833 14.0422 8.30617 14.3656 7.85017C14.7188 7.353 14.8438 6.73392 14.8438 6.33333C14.8438 6.12337 14.9261 5.92201 15.0726 5.77354C15.2191 5.62507 15.4178 5.54167 15.625 5.54167H25V2.375C25 1.74511 24.7531 1.14102 24.3135 0.695621C23.874 0.250223 23.2779 0 22.6562 0H2.34375Z" fill="#6EFFA8"/>
<path d="M25 7.125H16.3266C16.2145 7.71865 15.9785 8.28117 15.6344 8.77483C15.0203 9.63933 14.0047 10.2917 12.5 10.2917C10.9953 10.2917 9.97969 9.63933 9.36563 8.77483C9.02154 8.28114 8.78554 7.71864 8.67344 7.125H0V16.625C0 17.2549 0.24693 17.859 0.686468 18.3044C1.12601 18.7498 1.72215 19 2.34375 19H22.6562C23.2779 19 23.874 18.7498 24.3135 18.3044C24.7531 17.859 25 17.2549 25 16.625V7.125Z" fill="#6EFFA8"/>
</svg>
